<?xml version="1.0" encoding="UTF-8"?>
<svg version="1.1" xmlns="http://www.w3.org/2000/svg" width="1877" height="629">
<path d="M0 0 C9.95446552 7.01018699 15.86905052 15.88586398 19.21875 27.5625 C19.40953125 28.16320312 19.6003125 28.76390625 19.796875 29.3828125 C22.56025153 43.6602579 19.42087462 57.93477557 11.359375 69.921875 C8.15197998 73.87844258 4.46418799 77.11425054 0.57421875 80.37109375 C-2.131184 82.88806049 -3.54695886 84.8753599 -4.0597229 88.5677948 C-4.07304657 89.27656265 -4.08637024 89.98533051 -4.10009766 90.71557617 C-4.11995224 91.53083267 -4.13980682 92.34608917 -4.16026306 93.18605042 C-4.17182938 94.06695847 -4.18339569 94.94786652 -4.1953125 95.85546875 C-4.21481461 96.78250107 -4.23431671 97.70953339 -4.25440979 98.66465759 C-4.31509432 101.69301233 -4.36134817 104.72137312 -4.40625 107.75 C-4.44275089 109.83122387 -4.47961818 111.91244134 -4.5168457 113.99365234 C-4.62257457 120.18307227 -4.70449895 126.37266259 -4.78125 132.5625 C-4.79327454 133.46522644 -4.80529907 134.36795288 -4.81768799 135.29803467 C-4.88056771 140.05556151 -4.93097981 144.81282727 -4.95648193 149.57070923 C-4.9646169 150.9743551 -4.97569321 152.37798721 -4.98980713 153.78158569 C-5.00740488 155.71109487 -5.00996515 157.64072387 -5.01171875 159.5703125 C-5.01582764 160.63910645 -5.01993652 161.70790039 -5.02416992 162.80908203 C-4.77169376 165.67081682 -4.47905708 167.2510199 -2.78125 169.5625 C-0.65147673 170.71329153 -0.65147673 170.71329153 1.91796875 171.421875 C2.87316406 171.72883301 3.82835937 172.03579102 4.8125 172.35205078 C5.8334375 172.66899902 6.854375 172.98594727 7.90625 173.3125 C20.53274758 177.46708826 32.54643752 182.12609758 42.21875 191.5625 C41.85211315 194.09307288 41.53238572 195.28175421 39.59838867 197.01293945 C38.53454956 197.68135864 38.53454956 197.68135864 37.44921875 198.36328125 C36.63501465 198.87584473 35.82081055 199.3884082 34.98193359 199.91650391 C29.88242495 202.95422146 24.72298329 205.87320869 19.53125 208.75 C18.42974609 209.36552734 17.32824219 209.98105469 16.19335938 210.61523438 C-0.13240778 219.70918917 -0.13240778 219.70918917 -8.65625 219.6875 C-9.66429687 219.69007813 -10.67234375 219.69265625 -11.7109375 219.6953125 C-14.78125 219.5625 -14.78125 219.5625 -17.671875 219.07421875 C-37.34637036 215.83633069 -55.96046136 221.48677973 -72.38671875 232.2734375 C-74.24623585 233.64801487 -76.01867637 235.06698298 -77.78125 236.5625 C-78.58433594 237.1709375 -79.38742188 237.779375 -80.21484375 238.40625 C-94.12887744 250.09657968 -100.84606081 269.8391972 -102.59375 287.375 C-103.67149228 308.21899434 -96.58525449 326.56511083 -83.09375 342.3125 C-68.63763014 357.47487305 -49.4670135 365.26909957 -28.71875 365.9375 C-7.41517847 365.24657336 12.50735494 356.5474587 27.1640625 341.05859375 C32.88798326 334.1050094 37.00795831 326.41542265 40.40625 318.125 C46.01877891 304.61003037 56.86388425 300.20624283 69.28125 293.5 C71.14731866 292.48861928 73.01320616 291.47690422 74.87890625 290.46484375 C75.77367676 289.9838623 76.66844727 289.50288086 77.59033203 289.00732422 C79.33232326 288.049763 81.05799491 287.06184977 82.76513672 286.04345703 C83.55291504 285.57665527 84.34069336 285.10985352 85.15234375 284.62890625 C85.84255615 284.20681885 86.53276855 283.78473145 87.24389648 283.34985352 C89.67264734 282.38153586 90.80953839 282.64103429 93.21875 283.5625 C95.59565609 285.93940609 94.46022939 291.88205686 94.46875 295.0625 C94.43376948 327.47194961 82.48246964 355.91295709 59.70605469 379.08935547 C35.42911364 403.13516346 3.67383917 416.03554036 -30.34570312 415.92602539 C-58.04009248 415.50247743 -86.4282549 405.31084071 -107.78125 387.5625 C-109.05548828 386.51642578 -109.05548828 386.51642578 -110.35546875 385.44921875 C-128.74432952 369.65847017 -140.6729066 348.86983615 -147.59375 325.8125 C-147.7887207 325.1642627 -147.98369141 324.51602539 -148.18457031 323.84814453 C-151.2356272 313.06182437 -152.1452786 302.43097086 -152.09375 291.25 C-152.08811035 289.96762451 -152.0824707 288.68524902 -152.07666016 287.36401367 C-151.961138 278.36758249 -151.37662273 270.22027166 -148.78125 261.5625 C-148.58257324 260.87220703 -148.38389648 260.18191406 -148.17919922 259.47070312 C-142.2186851 239.02189814 -132.58848836 221.01569172 -117.78125 205.5625 C-117.03359375 204.74007812 -116.2859375 203.91765625 -115.515625 203.0703125 C-100.36047573 186.96169357 -79.33676831 177.75918037 -58.78125 170.5625 C-58.12125 170.5625 -57.46125 170.5625 -56.78125 170.5625 C-55.56622126 166.7197477 -55.55715848 162.85510245 -55.46484375 158.86328125 C-55.43319626 157.70598763 -55.43319626 157.70598763 -55.40090942 156.52531433 C-55.18863698 148.4614136 -55.03375738 140.39593405 -54.88964844 132.33056641 C-54.82031958 128.48346708 -54.73688758 124.63706932 -54.64160156 120.79052734 C-54.52722192 116.11131278 -54.44502258 111.43250938 -54.38528442 106.75228882 C-54.35777403 104.97070301 -54.3198853 103.18924478 -54.27120972 101.40811157 C-53.61713485 90.46133484 -53.61713485 90.46133484 -57.58984375 80.6171875 C-59.1103047 78.97582881 -59.1103047 78.97582881 -60.78125 77.5625 C-70.92166328 67.79765759 -76.98607583 57.19333447 -77.83984375 42.93359375 C-77.57844776 27.89461137 -72.71393899 14.66922413 -62.1796875 3.75 C-44.79546143 -12.10532019 -19.29278308 -12.15709618 0 0 Z " fill="#3FBC92" transform="translate(242.78125,132.4375)"/>
<path d="M0 0 C2.44407707 2.16795233 4.82250202 4.38681481 7.18359375 6.64453125 C7.86808594 7.26585937 8.55257812 7.8871875 9.2578125 8.52734375 C30.89752505 28.84911703 41.06447345 60.00565354 42.42578125 88.95703125 C42.78642173 102.09984583 40.85566589 114.96301582 37.57421875 127.65625 C37.11918761 131.13723825 37.60932281 132.54575429 39.18359375 135.64453125 C40.90664002 137.2749307 40.90664002 137.2749307 43.05859375 138.5234375 C43.86683594 139.02891113 44.67507813 139.53438477 45.5078125 140.05517578 C50.37352747 142.94530392 55.26360247 145.78520515 60.18359375 148.58203125 C70.41995358 154.43861123 80.56613681 160.42179393 90.64648438 166.54467773 C95.44132592 169.44645852 100.25883285 172.30031584 105.14453125 175.046875 C106.01255371 175.53534912 106.88057617 176.02382324 107.77490234 176.52709961 C112.69838638 178.811185 116.65305246 178.06849937 121.8359375 176.6328125 C126.4307741 175.4630249 130.83376422 175.29871758 135.55859375 175.33203125 C136.39712891 175.3376709 137.23566406 175.34331055 138.09960938 175.34912109 C144.22834028 175.46936232 149.55556169 176.06948712 155.18359375 178.64453125 C156.08207031 179.04671875 156.98054688 179.44890625 157.90625 179.86328125 C171.07960144 186.38653643 178.20295596 196.53784098 183.05859375 210.0859375 C186.51380647 223.11496879 183.92981114 236.53162124 177.6796875 248.234375 C170.96321031 259.05439178 160.78089717 266.33409022 148.61328125 269.984375 C135.02875509 272.5991642 121.01676672 271.22663378 109.18359375 263.70703125 C97.9893467 255.53054115 91.93856749 245.37967288 88.87109375 232.01953125 C86.33459358 222.74504603 80.54270856 218.56934411 72.55859375 213.89453125 C70.25825498 212.58225576 67.94875476 211.28844193 65.6328125 210.00390625 C61.4226513 207.66716606 57.2417716 205.27913522 53.05859375 202.89453125 C51.76175659 202.15843628 51.76175659 202.15843628 50.4387207 201.4074707 C42.46624864 196.86019807 34.63075398 192.0981397 26.82177734 187.27636719 C19.07274638 181.96463754 19.07274638 181.96463754 10.30859375 179.51953125 C6.53916601 180.87652524 4.29912736 182.84159837 1.40625 185.5625 C-4.16502064 190.78128252 -9.7727263 195.11076648 -16.37890625 198.95703125 C-17.10787109 199.39853516 -17.83683594 199.84003906 -18.58789062 200.29492188 C-22.63670183 202.67464619 -26.0207547 204.37770552 -30.81640625 204.64453125 C-31.47640625 204.31453125 -32.13640625 203.98453125 -32.81640625 203.64453125 C-33.82797284 197.26671275 -33.94259359 191.01449796 -33.8359375 184.5703125 C-33.8218132 183.64284714 -33.8076889 182.71538177 -33.7931366 181.7598114 C-33.76025038 179.81434212 -33.72393469 177.86892802 -33.68432617 175.92358398 C-33.62886615 172.95488497 -33.6004584 169.98664496 -33.57226562 167.01757812 C-33.53682669 165.11845768 -33.49977307 163.21936653 -33.4609375 161.3203125 C-33.45657181 160.43894119 -33.45220612 159.55756989 -33.44770813 158.64949036 C-33.2353673 150.95596782 -29.99583209 146.92068392 -25.06640625 141.20703125 C-15.2913579 129.0429319 -8.84410487 114.31693523 -7.81640625 98.64453125 C-7.76484375 97.86464844 -7.71328125 97.08476562 -7.66015625 96.28125 C-6.9714116 76.91030678 -14.15262445 57.69460239 -26.56640625 42.89453125 C-39.61097276 29.02213648 -58.30836904 20.56091527 -77.25390625 19.44140625 C-99.26953203 19.15172696 -118.15629408 25.83138946 -134.2734375 40.94921875 C-149.72373877 57.00489809 -155.3912759 77.177471 -155.08984375 98.98046875 C-154.56391374 114.6386027 -148.11000659 129.51931703 -137.7109375 141.16796875 C-132.98546733 147.3451813 -131.20414171 152.53236538 -131.50390625 160.26953125 C-131.5208252 161.09694824 -131.53774414 161.92436523 -131.55517578 162.77685547 C-131.59803771 164.65096795 -131.65145019 166.52485815 -131.71337891 168.3984375 C-131.80957441 171.42927969 -131.87937812 174.45988968 -131.9410553 177.49160767 C-131.99877447 180.23525064 -132.06729195 182.97854821 -132.13882446 185.72186279 C-132.17383989 187.08545263 -132.20653967 188.44910393 -132.23690796 189.81280518 C-132.28214574 191.73874291 -132.34194547 193.66432183 -132.40234375 195.58984375 C-132.4494751 197.26844482 -132.4494751 197.26844482 -132.49755859 198.98095703 C-132.81640625 201.64453125 -132.81640625 201.64453125 -134.81640625 203.64453125 C-144.91045235 202.8279733 -154.44961177 193.980922 -161.81640625 187.64453125 C-162.63882813 186.94457031 -163.46125 186.24460937 -164.30859375 185.5234375 C-187.95641626 164.85921877 -202.04407915 138.06423841 -204.81640625 106.64453125 C-206.7174845 73.75695157 -200.11861283 40.88254496 -178.03125 15.3671875 C-130.8125149 -37.58111448 -55.16759254 -46.13877711 0 0 Z " fill="#39B561" transform="translate(295.81640625,79.35546875)"/>
<path d="M0 0 C1.38251953 1.13695312 1.38251953 1.13695312 2.79296875 2.296875 C27.42668072 23.56038942 41.86919809 54.99411294 45 87 C47.19659064 117.86859924 37.23611388 149.15250988 17.5390625 172.9765625 C-4.91329698 198.26343912 -33.82617 216.17386627 -68.265625 218.875 C-100.23917895 220.33664818 -132.11009252 212.76277784 -156.87109375 191.5390625 C-158.51994231 190.0282454 -160.16363652 188.51177296 -161.80078125 186.98828125 C-163.84281058 185.14211264 -165.87275187 183.45636571 -168.125 181.875 C-168.68445313 181.48054687 -169.24390625 181.08609375 -169.8203125 180.6796875 C-174.49932677 179.22064004 -178.42075864 180.27292213 -182.73095703 182.25732422 C-185.86358605 183.93823449 -188.93445151 185.69970176 -192 187.5 C-193.11141357 188.13784424 -194.22282715 188.77568848 -195.36791992 189.43286133 C-197.58340007 190.70475572 -199.79596822 191.981738 -202.00537109 193.26416016 C-205.75622504 195.43834665 -209.53109261 197.56711706 -213.3125 199.6875 C-213.9202124 200.03288818 -214.5279248 200.37827637 -215.15405273 200.73413086 C-218.79252742 202.79601271 -222.46423266 204.77586778 -226.171875 206.7109375 C-227.06608154 207.18442627 -227.96028809 207.65791504 -228.8815918 208.14575195 C-230.61015814 209.05922709 -232.34561092 209.95984423 -234.08911133 210.84448242 C-243.3214396 215.75513645 -248.21948726 221.96436279 -251.4375 231.8125 C-255.97985401 244.42483583 -262.74109311 254.46502519 -275.0625 260.5 C-288.10952896 266.12813014 -302.53254544 267.21678872 -316 262 C-328.65301647 255.57145131 -338.09825446 245.73546199 -342.8125 232.25 C-346.5778847 219.53628932 -345.95013428 206.3150563 -339.875 194.375 C-334.39584789 185.36302146 -327.46665421 178.6249303 -318 174 C-316.84177734 173.38125 -316.84177734 173.38125 -315.66015625 172.75 C-305.24439021 168.01107327 -290.57056131 168.21682885 -279.75 171.625 C-279.02296875 171.92664063 -278.2959375 172.22828125 -277.546875 172.5390625 C-269.12475749 174.06331076 -261.5787338 168.88504517 -254.625 164.8125 C-252.41582945 163.54606374 -250.2061764 162.28046886 -247.99609375 161.015625 C-246.85382324 160.35755859 -245.71155273 159.69949219 -244.53466797 159.02148438 C-240.970099 156.97525626 -237.38159352 154.97394713 -233.78515625 152.984375 C-233.18983093 152.65503464 -232.59450562 152.32569427 -231.98114014 151.9863739 C-230.21690222 151.011189 -228.4522661 150.03672869 -226.6875 149.0625 C-222.45049131 146.72208397 -218.22168514 144.36793875 -214 142 C-212.89350098 141.38753418 -211.78700195 140.77506836 -210.64697266 140.14404297 C-209.57366699 139.53834473 -208.50036133 138.93264648 -207.39453125 138.30859375 C-206.4300708 137.76904053 -205.46561035 137.2294873 -204.47192383 136.67358398 C-201.96189301 134.97420016 -200.51063305 133.61729689 -199 131 C-199.15239955 127.69736372 -199.15239955 127.69736372 -200 124 C-200.25714924 122.51662677 -200.50815255 121.03217867 -200.75390625 119.546875 C-200.95270386 118.37886353 -200.95270386 118.37886353 -201.15551758 117.18725586 C-203.08873372 105.60999326 -203.79799853 95.51676181 -201 84 C-197.7462658 82.93768563 -196.35089467 82.84823323 -193.16015625 84.22827148 C-192.13792969 84.85290283 -191.11570312 85.47753418 -190.0625 86.12109375 C-189.50111328 86.45867203 -188.93972656 86.79625031 -188.36132812 87.14405823 C-186.56558826 88.22834741 -184.78297958 89.33238132 -183 90.4375 C-181.83283978 91.14651499 -180.6648765 91.85420977 -179.49609375 92.56054688 C-177.15904666 93.97609496 -174.83066373 95.40454675 -172.5078125 96.84326172 C-170.14346054 98.30551814 -167.76353696 99.73584294 -165.3671875 101.14501953 C-164.48740234 101.66866844 -164.48740234 101.66866844 -163.58984375 102.20289612 C-161.97730055 103.16182154 -160.35989985 104.11256506 -158.7421875 105.06274414 C-154.70332511 107.91605371 -152.03903944 111.18235036 -150.32421875 115.8203125 C-150.05754395 116.51503662 -149.79086914 117.20976074 -149.51611328 117.92553711 C-149.2426709 118.65135986 -148.96922852 119.37718262 -148.6875 120.125 C-144.05936077 131.80002327 -137.82095526 141.02010861 -129 150 C-128.45988281 150.55300781 -127.91976562 151.10601562 -127.36328125 151.67578125 C-118.4059842 160.04645431 -106.76177191 165.13640491 -95 168 C-94.24460937 168.19078125 -93.48921875 168.3815625 -92.7109375 168.578125 C-72.00460984 171.80043536 -52.52951445 166.63146284 -35.2421875 155.171875 C-33.06408423 153.53276 -31.02357925 151.82502346 -29 150 C-28.41347656 149.505 -27.82695312 149.01 -27.22265625 148.5 C-12.79594475 135.41454739 -6.92535945 116.32599314 -4.71484375 97.58203125 C-3.83290014 77.75747275 -12.42857347 59.35381821 -25.015625 44.64453125 C-36.50013597 32.28804815 -53.49605721 23.01323238 -70.4777832 21.8269043 C-73.07169963 21.76826357 -75.65573501 21.77499543 -78.25 21.8125 C-79.62816895 21.81890503 -79.62816895 21.81890503 -81.03417969 21.82543945 C-87.07931055 21.88227856 -93.02213169 22.23614553 -99.015625 23.07421875 C-107.08101564 22.87363966 -113.58529539 18.71363235 -120.125 14.375 C-121.78267587 13.29636407 -123.44154687 12.21956281 -125.1015625 11.14453125 C-125.92043945 10.6129541 -126.73931641 10.08137695 -127.58300781 9.53369141 C-129.84824615 8.09629471 -132.13714737 6.72688574 -134.4609375 5.38671875 C-135.14526855 4.9911377 -135.82959961 4.59555664 -136.53466797 4.18798828 C-137.80693539 3.45939787 -139.08435065 2.73969401 -140.36767578 2.03076172 C-144.10563973 -0.12530858 -146.10814771 -2.11494619 -148 -6 C-144.66945245 -11.04011051 -140.82873952 -12.99997705 -135.5 -15.4375 C-134.25162354 -16.01673218 -134.25162354 -16.01673218 -132.97802734 -16.60766602 C-89.13737776 -36.31423068 -37.29581589 -31.01830233 0 0 Z " fill="#929498" transform="translate(511,207)"/>
<path d="M0 0 C98.96740995 0 98.96740995 0 118 19 C118.6496875 19.63808594 119.299375 20.27617187 119.96875 20.93359375 C131.22826641 32.81040821 134.52979899 48.33061002 134.421875 64.2409668 C133.87208125 81.20680617 127.06531687 95.22848143 115 107 C102.69112558 118.50879758 88.87952971 123.35882332 72.28125 123.1953125 C71.30639648 123.19329834 70.33154297 123.19128418 69.32714844 123.18920898 C65.71805045 123.17881865 62.10902003 123.15089658 58.5 123.125 C50.415 123.08375 42.33 123.0425 34 123 C34 144.78 34 166.56 34 189 C22.78 189 11.56 189 0 189 C0 126.63 0 64.26 0 0 Z M34 31 C34 51.13 34 71.26 34 92 C40.72375 92.0825 47.4475 92.165 54.375 92.25 C57.52748291 92.30462402 57.52748291 92.30462402 60.74365234 92.36035156 C62.4410704 92.37205244 64.13849982 92.38224094 65.8359375 92.390625 C67.1194812 92.4213208 67.1194812 92.4213208 68.42895508 92.45263672 C76.92619519 92.45746058 85.09802154 89.85434003 91.3984375 83.95703125 C97.58250019 76.4004083 100.50473511 67.98388583 99.80859375 58.3515625 C98.64608489 49.61439066 95.11260363 42.17446023 88.1875 36.5625 C81.3540034 31.50903121 73.39695664 30.55625136 65.15234375 30.70703125 C64.35542114 30.71005249 63.55849854 30.71307373 62.73742676 30.71618652 C59.80398318 30.73170147 56.87072645 30.77358318 53.9375 30.8125 C47.358125 30.874375 40.77875 30.93625 34 31 Z " fill="#39B561" transform="translate(1225,197)"/>
<path d="M0 0 C98.96740995 0 98.96740995 0 118 19 C118.6496875 19.63808594 119.299375 20.27617187 119.96875 20.93359375 C131.22826641 32.81040821 134.52979899 48.33061002 134.421875 64.2409668 C133.87208125 81.20680617 127.06531687 95.22848143 115 107 C102.69112558 118.50879758 88.87952971 123.35882332 72.28125 123.1953125 C71.30639648 123.19329834 70.33154297 123.19128418 69.32714844 123.18920898 C65.71805045 123.17881865 62.10902003 123.15089658 58.5 123.125 C50.415 123.08375 42.33 123.0425 34 123 C34 144.78 34 166.56 34 189 C22.78 189 11.56 189 0 189 C0 126.63 0 64.26 0 0 Z M34 31 C34 51.13 34 71.26 34 92 C40.72375 92.0825 47.4475 92.165 54.375 92.25 C57.52748291 92.30462402 57.52748291 92.30462402 60.74365234 92.36035156 C62.4410704 92.37205244 64.13849982 92.38224094 65.8359375 92.390625 C67.1194812 92.4213208 67.1194812 92.4213208 68.42895508 92.45263672 C76.92619519 92.45746058 85.09802154 89.85434003 91.3984375 83.95703125 C97.58250019 76.4004083 100.50473511 67.98388583 99.80859375 58.3515625 C98.64608489 49.61439066 95.11260363 42.17446023 88.1875 36.5625 C81.3540034 31.50903121 73.39695664 30.55625136 65.15234375 30.70703125 C64.35542114 30.71005249 63.55849854 30.71307373 62.73742676 30.71618652 C59.80398318 30.73170147 56.87072645 30.77358318 53.9375 30.8125 C47.358125 30.874375 40.77875 30.93625 34 31 Z " fill="#39B561" transform="translate(666,197)"/>
<path d="M0 0 C2.23547514 2.2398328 4.08679226 4.46629245 6 7 C6.33 2.05 6.66 -2.9 7 -8 C17.89 -8 28.78 -8 40 -8 C40 37.21 40 82.42 40 129 C29.11 129 18.22 129 7 129 C6.505 121.575 6.505 121.575 6 114 C5.030625 115.19625 4.06125 116.3925 3.0625 117.625 C-4.97153091 126.68328983 -14.77552929 131.26393778 -26.8515625 132.22753906 C-39.28827082 132.84703675 -51.3964252 132.97720558 -63 128 C-64.07894531 127.53722656 -65.15789062 127.07445312 -66.26953125 126.59765625 C-82.75632232 118.59872678 -94.43575986 104.91740685 -100.9375 87.9375 C-107.1907029 68.59569654 -107.03153908 46.41603002 -98.4296875 27.76171875 C-89.14575726 9.82800651 -75.17168395 -2.49078104 -56 -9 C-37.81322283 -14.30677996 -14.88586455 -12.26493455 0 0 Z M-60.3125 30.625 C-68.54162693 39.56382576 -71.61820929 50.01177171 -72 62 C-71.31042638 73.6675857 -67.09927443 83.55065869 -59 92 C-49.09882794 100.04360704 -38.67733654 103.05644471 -26 102 C-17.77741147 100.34222005 -11.19161543 97.67223047 -5 92 C-4.38511719 91.47535156 -3.77023437 90.95070313 -3.13671875 90.41015625 C4.3759455 83.57314917 8.4276912 74.2662778 9.21875 64.22265625 C9.59880745 51.91829624 6.37743513 40.96386595 -2.0390625 31.7734375 C-18.89516381 15.87033132 -42.95867923 14.81886343 -60.3125 30.625 Z " fill="#39B561" transform="translate(1744,257)"/>
<path d="M0 0 C3.54111289 2.81098652 6.79617892 5.81269347 10 9 C10.62648438 9.59167969 11.25296875 10.18335938 11.8984375 10.79296875 C15.94770667 14.94301158 18.61829885 19.63320554 21.25 24.75 C21.5795166 25.38107666 21.9090332 26.01215332 22.24853516 26.66235352 C29.32785242 41.10162595 28 53.70580738 28 70 C-6.32 70 -40.64 70 -76 70 C-73.44350784 82.78246082 -70.45250109 90.40831771 -59.875 98.125 C-46.040864 106.89566139 -28.07456129 105.28759318 -12.65625 101.97265625 C-3.79991829 99.61664493 3.28837489 96.34203696 10.2578125 90.35546875 C12 89 12 89 14 89 C14.24828873 93.4470421 14.42909832 97.89036894 14.54931641 102.34228516 C14.59943968 103.85406764 14.66756841 105.36536913 14.75439453 106.87548828 C15.45384786 119.35867298 15.45384786 119.35867298 11.99316406 123.265625 C9.37717731 124.8840488 6.90043029 125.98657112 4 127 C3.31760254 127.28633301 2.63520508 127.57266602 1.93212891 127.86767578 C0.15497737 128.58467264 -1.67345521 129.17027057 -3.5 129.75 C-4.6859375 130.13671875 -5.871875 130.5234375 -7.09375 130.921875 C-16.81607368 133.70469134 -26.07859809 134.40629223 -36.1875 134.375 C-37.22171585 134.37368576 -37.22171585 134.37368576 -38.27682495 134.37234497 C-58.22480532 134.28856282 -76.23835344 129.1433577 -91 115 C-100.58438104 104.99662962 -106.5554297 92.59181088 -109 79 C-109.13019531 78.27941406 -109.26039062 77.55882812 -109.39453125 76.81640625 C-112.38391302 55.73130014 -108.89177316 34.483025 -97.00390625 16.6640625 C-75.63722461 -11.74154546 -29.80689773 -20.52352805 0 0 Z M-71.37109375 33.6171875 C-74.09074968 37.59558106 -76 42.12290217 -76 47 C-52.57 47 -29.14 47 -5 47 C-7.15766099 36.21169507 -9.04238014 30.65571489 -17.75 24.125 C-35.79933399 12.51415977 -57.87467569 17.53054779 -71.37109375 33.6171875 Z " fill="#39B561" transform="translate(1478,256)"/>
<path d="M0 0 C3.54111289 2.81098652 6.79617892 5.81269347 10 9 C10.62648438 9.59167969 11.25296875 10.18335938 11.8984375 10.79296875 C15.94770667 14.94301158 18.61829885 19.63320554 21.25 24.75 C21.5795166 25.38107666 21.9090332 26.01215332 22.24853516 26.66235352 C29.32785242 41.10162595 28 53.70580738 28 70 C-6.32 70 -40.64 70 -76 70 C-73.44350784 82.78246082 -70.45250109 90.40831771 -59.875 98.125 C-46.040864 106.89566139 -28.07456129 105.28759318 -12.65625 101.97265625 C-3.79991829 99.61664493 3.28837489 96.34203696 10.2578125 90.35546875 C12 89 12 89 14 89 C14.24828873 93.4470421 14.42909832 97.89036894 14.54931641 102.34228516 C14.59943968 103.85406764 14.66756841 105.36536913 14.75439453 106.87548828 C15.45384786 119.35867298 15.45384786 119.35867298 11.99316406 123.265625 C9.37717731 124.8840488 6.90043029 125.98657112 4 127 C3.31760254 127.28633301 2.63520508 127.57266602 1.93212891 127.86767578 C0.15497737 128.58467264 -1.67345521 129.17027057 -3.5 129.75 C-4.6859375 130.13671875 -5.871875 130.5234375 -7.09375 130.921875 C-16.81607368 133.70469134 -26.07859809 134.40629223 -36.1875 134.375 C-37.22171585 134.37368576 -37.22171585 134.37368576 -38.27682495 134.37234497 C-58.22480532 134.28856282 -76.23835344 129.1433577 -91 115 C-100.58438104 104.99662962 -106.5554297 92.59181088 -109 79 C-109.13019531 78.27941406 -109.26039063 77.55882812 -109.39453125 76.81640625 C-112.38391302 55.73130014 -108.89177316 34.483025 -97.00390625 16.6640625 C-75.63722461 -11.74154546 -29.80689773 -20.52352805 0 0 Z M-71.37109375 33.6171875 C-74.09074968 37.59558106 -76 42.12290217 -76 47 C-52.57 47 -29.14 47 -5 47 C-7.15766099 36.21169507 -9.04238014 30.65571489 -17.75 24.125 C-35.79933399 12.51415977 -57.87467569 17.53054779 -71.37109375 33.6171875 Z " fill="#39B561" transform="translate(1072,256)"/>
<path d="M0 0 C3.54111289 2.81098652 6.79617892 5.81269347 10 9 C10.62648438 9.59167969 11.25296875 10.18335938 11.8984375 10.79296875 C15.94770667 14.94301158 18.61829885 19.63320554 21.25 24.75 C21.5795166 25.38107666 21.9090332 26.01215332 22.24853516 26.66235352 C29.32785242 41.10162595 28 53.70580738 28 70 C-6.32 70 -40.64 70 -76 70 C-73.44350784 82.78246082 -70.45250109 90.40831771 -59.875 98.125 C-46.040864 106.89566139 -28.07456129 105.28759318 -12.65625 101.97265625 C-3.79991829 99.61664493 3.28837489 96.34203696 10.2578125 90.35546875 C12 89 12 89 14 89 C14.24828873 93.4470421 14.42909832 97.89036894 14.54931641 102.34228516 C14.59943968 103.85406764 14.66756841 105.36536913 14.75439453 106.87548828 C15.45384786 119.35867298 15.45384786 119.35867298 11.99316406 123.265625 C9.37717731 124.8840488 6.90043029 125.98657112 4 127 C3.31760254 127.28633301 2.63520508 127.57266602 1.93212891 127.86767578 C0.15497737 128.58467264 -1.67345521 129.17027057 -3.5 129.75 C-4.6859375 130.13671875 -5.871875 130.5234375 -7.09375 130.921875 C-16.81607368 133.70469134 -26.07859809 134.40629223 -36.1875 134.375 C-37.22171585 134.37368576 -37.22171585 134.37368576 -38.27682495 134.37234497 C-58.22480532 134.28856282 -76.23835344 129.1433577 -91 115 C-100.58438104 104.99662962 -106.5554297 92.59181088 -109 79 C-109.13019531 78.27941406 -109.26039063 77.55882812 -109.39453125 76.81640625 C-112.38391302 55.73130014 -108.89177316 34.483025 -97.00390625 16.6640625 C-75.63722461 -11.74154546 -29.80689773 -20.52352805 0 0 Z M-71.37109375 33.6171875 C-74.09074968 37.59558106 -76 42.12290217 -76 47 C-52.57 47 -29.14 47 -5 47 C-7.15766099 36.21169507 -9.04238014 30.65571489 -17.75 24.125 C-35.79933399 12.51415977 -57.87467569 17.53054779 -71.37109375 33.6171875 Z " fill="#39B561" transform="translate(918,256)"/>
<path d="M0 0 C1.14662109 -0.01611328 2.29324219 -0.03222656 3.47460938 -0.04882812 C13.24202236 -0.05435581 22.6657064 1.24455833 31.375 5.9375 C32.58736328 6.57558594 32.58736328 6.57558594 33.82421875 7.2265625 C35.6875 8.3125 35.6875 8.3125 36.6875 9.3125 C36.77533542 11.53105264 36.79444609 13.75238496 36.78515625 15.97265625 C36.7837413 16.63712265 36.78232635 17.30158905 36.78086853 17.9861908 C36.77525518 20.11583899 36.76270054 22.24538339 36.75 24.375 C36.74498671 25.81575369 36.74042351 27.25650903 36.73632812 28.69726562 C36.72528145 32.23571102 36.70800792 35.77409539 36.6875 39.3125 C33.38917263 38.75527404 31.32253329 38.11649936 28.3125 36.5 C16.76245498 30.5952017 2.75048284 28.16959142 -10.02734375 30.890625 C-13.648455 32.12167186 -15.16344889 33.08892334 -17.3125 36.3125 C-18.05552382 41.78091075 -18.05552382 41.78091075 -15.66015625 46.3984375 C-12.99341656 48.57265122 -10.56629321 49.71187801 -7.375 51 C-6.12617748 51.51662598 -4.87748829 52.03357435 -3.62890625 52.55078125 C-2.9445752 52.83002441 -2.26024414 53.10926758 -1.55517578 53.39697266 C41.51881279 70.98106335 41.51881279 70.98106335 48.8125 87.11328125 C52.42348792 96.18911251 52.2147955 109.18224415 49.1875 118.4375 C44.46628908 128.96943205 36.25536718 137.17833279 25.59375 141.59375 C7.28719726 147.93760491 -17.04921502 148.11687818 -35.3125 141.3125 C-35.94591309 141.07692383 -36.57932617 140.84134766 -37.23193359 140.59863281 C-49.90216477 135.78715262 -49.90216477 135.78715262 -54.3125 131.3125 C-54.76104867 128.55985812 -54.90150395 126.43987377 -54.80078125 123.703125 C-54.79370651 122.97631531 -54.78663177 122.24950562 -54.77934265 121.50067139 C-54.7514273 119.18688543 -54.68870383 116.87555002 -54.625 114.5625 C-54.59991299 112.99092046 -54.57710051 111.41930284 -54.55664062 109.84765625 C-54.50161132 106.0016648 -54.41536666 102.15749735 -54.3125 98.3125 C-51.19603234 99.82137616 -48.58301154 101.54249882 -45.8125 103.625 C-31.23184331 113.86338813 -13.77881239 116.64512811 3.6875 115.3125 C6.93640683 114.67656218 9.732983 113.79321812 12.6875 112.3125 C13.925 111.7246875 13.925 111.7246875 15.1875 111.125 C17.13748731 108.76876534 17.48668233 106.43104947 17.90234375 103.4453125 C17.59037811 100.34834449 16.59782591 98.77141238 14.6875 96.3125 C12.46592291 94.90093493 10.43022825 93.78489963 8.0625 92.6875 C7.38098877 92.35758057 6.69947754 92.02766113 5.99731445 91.68774414 C1.5281915 89.55543026 -2.99995948 87.56677741 -7.54296875 85.59765625 C-9.17274658 84.89020264 -9.17274658 84.89020264 -10.83544922 84.16845703 C-12.9744782 83.24610596 -15.1178549 82.33375102 -17.26611328 81.43310547 C-30.16782522 75.91201931 -41.21267049 69.44201171 -47.48828125 56.46484375 C-51.62342212 45.66644271 -51.99673845 34.32284525 -47.4375 23.60546875 C-42.15791995 12.84465802 -33.32778402 6.62515059 -22.3125 2.3125 C-14.96325447 0.01076689 -7.64525853 -0.02127228 0 0 Z " fill="#39B561" transform="translate(1574.3125,244.6875)"/>
<path d="M0 0 C0 10.89 0 21.78 0 33 C-2.64 32.67 -5.28 32.34 -8 32 C-19.04739378 31.19879431 -29.97480371 33.24873012 -39 40 C-47.36877323 48.20065056 -49.39872193 58.7299453 -49.58554459 69.97991657 C-49.60620624 72.51145235 -49.60814714 75.04260526 -49.609375 77.57421875 C-49.62438105 79.35213204 -49.64111323 81.13003151 -49.65948486 82.90791321 C-49.70289869 87.55203953 -49.7230994 92.19597789 -49.73822021 96.840271 C-49.75788564 101.59349564 -49.7998446 106.34652005 -49.83984375 111.09960938 C-49.9148643 120.39971134 -49.96326108 129.69966796 -50 139 C-60.89 139 -71.78 139 -83 139 C-83 93.79 -83 48.58 -83 2 C-72.11 2 -61.22 2 -50 2 C-49.505 9.425 -49.505 9.425 -49 17 C-47.7934375 15.453125 -47.7934375 15.453125 -46.5625 13.875 C-33.97027128 -0.62070516 -17.78382165 -0.45893733 0 0 Z " fill="#39B562" transform="translate(1204,247)"/>
</svg>
