<?xml version="1.0" encoding="UTF-8"?>
<svg width="379px" height="380px" viewBox="0 0 379 380" version="1.1" xmlns="http://www.w3.org/2000/svg" xmlns:xlink="http://www.w3.org/1999/xlink">
    <!-- Generator: Sketch 46.2 (44496) - http://www.bohemiancoding.com/sketch -->
    <title>airtel-icon copy</title>
    <desc>Created with Sketch.</desc>
    <defs></defs>
    <g id="Page-1" stroke="none" stroke-width="1" fill="none" fill-rule="evenodd">
        <g id="airtel-icon-copy">
            <rect id="Rectangle-path" fill="#EC1C24" x="0" y="0" width="378.502635" height="380"></rect>
            <g id="Group" transform="translate(33.240741, 46.000000)" fill-rule="nonzero" fill="#FFFFFF">
                <path d="M306.644499,268.502124 C302.50105,268.502124 299.393464,265.159972 299.393464,260.703769 L299.393464,171.57971 L280.747946,174.921862 L280.747946,259.589718 C280.747946,271.844276 290.070705,281.870733 300.429326,281.870733 L310.787947,281.870733 L310.787947,268.502124 L306.644499,268.502124 Z" id="Shape"></path>
                <polygon id="Shape" points="81.6441451 279.841707 101.674146 279.841707 101.674146 191.594203 81.6441451 195.077657"></polygon>
                <path d="M116.670705,209.246792 L116.670705,214.850263 L116.670705,279.850519 L136.267227,279.850519 L136.267227,223.815815 L136.267227,217.091651 C136.267227,207.005404 159.129837,209.246792 159.129837,209.246792 L166.750706,193.557075 C135.178531,184.591523 116.670705,209.246792 116.670705,209.246792 Z" id="Shape"></path>
                <path d="M195.338475,258.733433 L195.338475,209.698885 L206.736751,209.698885 L206.736751,194.096984 L195.338475,194.096984 L195.338475,169.57971 L176.686752,171.808553 L176.686752,257.619011 C176.686752,269.877648 186.012613,279.907442 196.374682,279.907442 L206.736751,279.907442 L206.736751,266.534383 L202.591923,266.534383 C198.447096,266.534383 195.338475,262.076697 195.338475,258.733433 Z" id="Shape"></path>
                <path d="M90.9115,166.072464 C85.3096816,166.072464 80.6414996,171.214194 80.6414996,177.38427 C80.6414996,183.554345 85.3096816,188.696075 90.9115,188.696075 C96.5133185,188.696075 101.1815,183.554345 101.1815,177.38427 C101.1815,171.214194 96.5133185,166.072464 90.9115,166.072464 Z" id="Shape"></path>
                <path d="M241.335003,265.214988 C229.887385,259.628774 230.841353,239.518403 230.841353,239.518403 L271.861987,239.518403 C271.861987,214.93906 267.092146,192.594203 246.104845,192.594203 C225.117544,192.594203 212.715957,210.470089 212.715957,236.166674 C212.715957,260.746017 226.071512,280.856388 247.058813,280.856388 C255.644527,280.856388 267.092146,277.50466 272.815955,271.918445 L266.138177,260.746017 C266.138177,260.746017 252.782622,270.801202 241.335003,265.214988 Z M243.24294,208.235603 C252.782622,208.235603 254.690559,224.994246 254.690559,224.994246 L253.73659,224.994246 L230.841353,224.994246 C231.795321,224.994246 233.703258,208.235603 243.24294,208.235603 Z" id="Shape"></path>
                <path d="M40.8568746,185.594203 C40.8568746,185.594203 31.6691852,185.594203 23.629957,188.203401 C15.5907288,189.508 7.55150062,196.030995 7.55150062,196.030995 L14.4422676,211.686182 C14.4422676,211.686182 22.4814958,202.553989 36.2630299,202.553989 C53.4899474,202.553989 51.1930251,222.122974 51.1930251,222.122974 C16.73919,214.29538 -0.48772757,233.864364 0.6607336,254.737947 C0.6607336,263.87014 1.80919477,274.306932 10.9968841,280.829926 C40.8568746,303.008109 70.716865,270.393135 70.716865,270.393135 L70.716865,215.599979 C69.5684038,199.944791 56.9353309,185.594203 40.8568746,185.594203 Z M48.8961028,267.783937 C48.8961028,267.783937 35.1145687,275.611531 27.0753405,269.088536 C17.8876512,262.565541 19.0361123,246.910354 27.0753405,241.691958 C35.1145687,236.473562 48.8961028,240.387359 48.8961028,240.387359 L48.8961028,267.783937 Z" id="Shape"></path>
                <path d="M112.626259,28.6720683 C74.1661567,66.9873541 88.2369257,79.9317074 97.1484127,84.5916746 C106.528925,89.2516418 118.723592,82.520578 133.732412,69.5762248 C149.210258,56.6318715 184.38718,30.7431649 192.829642,43.6875182 C201.272103,56.1140973 201.272103,81.4850298 165.626155,114.622574 C129.980207,147.760119 122.475797,128.602476 140.298771,113.069252 C158.121745,98.053802 154.838566,88.7338676 146.396104,87.1805452 C137.484617,85.6272228 129.980207,88.2160935 122.475797,103.749317 C122.475797,103.749317 110.750156,129.12025 125.758976,135.851314 C136.546566,140.511281 167.502258,126.531379 190.484514,100.642673 C207.369436,82.0028039 220.033129,59.2207421 214.873847,29.1898425 C207.838462,-9.64321742 151.08636,-9.64321742 112.626259,28.6720683 Z" id="Shape"></path>
            </g>
        </g>
    </g>
</svg>