<?xml version="1.0" encoding="UTF-8"?>
<svg width="379px" height="380px" viewBox="0 0 379 380" version="1.1" xmlns="http://www.w3.org/2000/svg" xmlns:xlink="http://www.w3.org/1999/xlink">
    <!-- Generator: Sketch 46.2 (44496) - http://www.bohemiancoding.com/sketch -->
    <title>p_airtel_tigo_cash</title>
    <desc>Created with Sketch.</desc>
    <defs></defs>
    <g id="Page-1" stroke="none" stroke-width="1" fill="none" fill-rule="evenodd">
        <g id="p_airtel_tigo_cash" fill-rule="nonzero">
            <rect id="Rectangle-path" fill="#E51E26" x="0" y="83" width="378.502635" height="297"></rect>
            <path d="M0,0 L379,0 C379,69.3333333 379,138.666667 379,208 C379,233.965762 320.730187,244.482632 295,238.736842 C256.951923,230.240353 246.794085,218 211,218 C182.869621,218 122.522513,240.614363 93,248 C59.5531949,256.367375 -2.83336746e-13,254.870837 0,226 C6.06329801e-13,164.666667 6.06329801e-13,89.3333333 0,0 Z" id="Rectangle-68" fill="#1C3F77"></path>
            <g id="Group-42" transform="translate(5.000000, 118.000000)" fill="#FFFFFF">
                <g id="Group-36" transform="translate(227.000000, 0.000000)">
                    <path d="M107.904089,2.27738582 C113.687627,-0.588431908 120.634737,-0.6879633 126.617352,1.63214782 C130.070312,3.00499463 133.361952,5.13290719 135.503749,8.22524465 C137.261121,10.8885675 136.911019,14.1902641 136.859534,17.2173913 C135.067838,15.3125663 133.276143,13.3596918 131.062267,11.9250668 C126.665405,8.89107536 121.13243,7.73445191 115.856882,8.33507242 C109.41433,8.81556878 103.109073,11.9319311 99.2442278,17.179638 C99.2991455,14.6089823 98.8220468,11.8838814 99.9238364,9.46080677 C101.389457,6.04276141 104.684529,3.86336711 107.904089,2.27738582 Z" id="Shape"></path>
                    <path d="M35.7810593,7.6944905 C38.7541942,6.9512564 42.096064,8.84252173 42.8800415,11.8254122 C44.0227883,15.3690463 40.9998245,19.4004277 37.2892193,19.3606116 C34.0669392,19.5530561 31.216716,16.6132998 31.2665451,13.4346468 C31.216716,10.7702852 33.1965913,8.29836822 35.7810593,7.6944905 Z" id="Shape"></path>
                    <path d="M5.97242199,13.4355964 C7.32314909,12.7412744 8.8887646,12.9454867 10.3520523,12.928469 C10.3384086,16.0767428 10.3315867,19.2250166 10.3520523,22.3732903 C15.1648703,22.3596762 19.9742774,22.3664832 24.7870955,22.3698868 C24.7120551,24.1124989 24.9132997,25.8721287 24.6472474,27.6011266 C24.0810336,30.0516748 21.5126055,31.504986 19.1181348,31.542425 C16.1949703,31.5832674 13.2718058,31.5696533 10.3486414,31.5458285 C10.3315867,37.1650718 10.3452304,42.784315 10.3452304,48.4035583 C10.3418195,50.5954375 10.928499,53.0595998 12.8556727,54.3563485 C14.8033121,55.6496931 17.2694123,55.4250594 19.4899258,55.2855144 C21.3386482,55.1766012 23.1123303,54.6082103 24.7768627,53.8219926 C24.6472474,56.2827517 25.2441597,58.9783545 23.8525014,61.1940587 C22.518829,63.3757274 19.8651278,64.2300156 17.4467805,64.4818774 C14.1211266,64.7473538 10.6692685,64.4069997 7.59602327,63.0489874 C4.59781841,61.7692569 2.24427876,59.1485314 1.14937118,56.0989604 C0.242064596,53.6416053 -0.0342204925,51.0004588 0.00329970471,48.3967511 C0.00329970471,40.2248535 0.00671063172,32.0529559 0.00329970471,23.8810582 C0.0374089749,21.8014958 0.272762939,19.6028094 1.4802311,17.8363726 C2.66041185,16.1005676 4.06571379,14.405605 5.97242199,13.4355964 Z" id="Shape"></path>
                    <path d="M117.161677,21.5623107 C121.372796,21.3039294 125.71867,22.271998 129.249272,24.687002 C134.181334,28.0390688 137.169543,33.8405903 137.833216,39.7833603 C138.372239,45.2093678 137.647926,50.9006467 135.026926,55.713429 C132.678806,60.1162464 128.58223,63.5337696 123.818613,64.8050057 C118.027483,66.3897444 111.400867,65.8316409 106.431747,62.186742 C101.802885,58.9035769 99.0572361,53.377662 98.3194482,47.7518397 C97.6962025,42.353393 98.4306217,36.6931199 100.913497,31.8458866 C102.587838,28.5592764 105.175149,25.7308624 108.389075,23.9876499 C111.070715,22.4821482 114.122934,21.7517903 117.161677,21.5623107 Z M115.268358,31.1809854 C113.216701,31.6943029 111.485089,33.1929145 110.467683,35.0601501 C108.8304,37.9574657 108.631635,41.4059949 108.786604,44.6719347 C108.938205,47.7552848 109.601877,51.007444 111.606369,53.4190029 C113.775938,55.9924806 117.431188,56.6711626 120.574367,56.0579375 C123.026923,55.5480651 125.038153,53.6567136 126.058928,51.3657331 C127.399748,48.427076 127.534504,45.0818996 127.30205,41.898642 C127.02917,38.7773957 126.247586,35.4356642 123.936524,33.2101399 C121.682734,30.9711798 118.236354,30.5367547 115.268358,31.1809854 Z" id="Shape"></path>
                    <path d="M69.6009286,23.0060951 C73.9642088,21.6273111 78.6773748,21.0826913 83.1984467,21.9168557 C86.3817206,22.5407555 89.6576112,24.222872 91.1360497,27.2665379 C92.2886144,29.4277819 91.8255302,31.9509567 91.9112864,34.2948896 C91.4859352,34.2983366 91.0605839,34.3017836 90.6352326,34.3052305 C87.0986431,31.664859 82.5707106,30.7755433 78.245163,30.7272859 C74.1734541,30.6548997 69.9473837,32.2784179 67.3815556,35.5357953 C65.3371253,37.9624553 64.5172952,41.2439613 64.6853778,44.3772481 C64.7917156,47.8517838 65.6698598,51.5813949 68.2391186,54.0804412 C70.9867504,56.9000543 75.1613668,57.6618325 78.9380741,57.4998255 C80.3650587,57.4102047 82.3443139,57.0172509 82.5398382,55.286877 C82.7216419,51.4952207 82.6667576,47.6553073 81.8057644,43.9394842 C83.815892,43.9946356 85.8294499,43.8774391 87.8361473,44.0049765 C90.4088364,44.2497106 92.8683267,46.4695529 92.693384,49.1995456 C92.5253014,52.9739667 93.2628056,56.9931223 91.6334362,60.5434913 C90.1721489,63.7491644 86.7521876,65.4519625 83.4660066,66.1172261 C77.1543431,67.3477905 70.3041301,66.7790421 64.6476448,63.5423465 C59.81442,60.8881875 56.0823057,56.2554727 54.7067751,50.8782152 C53.1665918,44.9218679 53.8149094,38.2899165 56.9467293,32.9505752 C59.6909308,28.1624028 64.4006666,24.6778708 69.6009286,23.0060951 Z" id="Shape"></path>
                    <path d="M32.3478415,23.673913 C34.8636088,23.7605516 37.5955194,23.3793419 39.8561667,24.7135757 C42.0707507,25.9195844 43.0806006,28.4875512 43.0841442,30.8683787 C43.1231206,36.5276092 43.0876874,42.1868397 43.105404,47.8495357 C43.1266642,49.6862733 42.9813873,51.5438039 43.3144611,53.3632132 C43.5058011,54.5068425 44.1471444,55.6539367 45.2491214,56.1772336 C47.2369317,57.2099655 49.5719891,56.9673775 51.7440531,56.9847049 C51.7157061,59.1991864 51.9849998,61.6285316 50.7129425,63.586563 C49.7030926,65.1252639 47.704652,65.5619223 45.9577881,65.6277675 C42.4038241,65.7559927 38.5486763,64.9935732 35.9336957,62.4706586 C33.1946984,59.8715019 32.3407548,55.9727668 32.3478415,52.3616716 C32.3442982,42.8002409 32.3407548,33.2353441 32.3478415,23.673913 Z" id="Shape"></path>
                    <path d="M65.8772859,72.0978261 C69.000603,76.1042426 72.5203677,79.8990649 76.8640541,82.5804152 C82.1040568,85.9173613 88.3713756,87.4887091 94.5525098,87.2667086 C102.729672,87.1487707 110.934413,84.2419507 117.084521,78.7509057 C119.35289,76.8916508 121.062786,74.4878011 122.831286,72.1706699 C122.872655,75.5700538 123.210497,79.0908437 122.010812,82.3480086 C120.542233,87.1591772 116.670836,90.7146547 112.613282,93.4064115 C106.997516,97.1110462 100.275144,99.2651455 93.5320883,98.9737698 C84.855058,98.6546438 76.2090537,94.9500095 70.3381825,88.453024 C68.69034,86.6492695 67.2838129,84.5749518 66.615023,82.1953832 C65.4808383,78.9555625 65.7738647,75.4659911 65.8772859,72.0978261 Z" id="Shape"></path>
                </g>
                <g id="Group" transform="translate(0.000000, 6.000000)">
                    <path d="M216.916766,52.9368258 C214.833531,52.9368258 213.271106,51.2218798 213.271106,48.9352851 L213.271106,3.20338983 L203.896552,4.91833579 L203.896552,48.3636362 C203.896552,54.6517718 208.583829,59.7966102 213.791914,59.7966102 L219,59.7966102 L219,52.9368258 L216.916766,52.9368258 Z" id="Shape"></path>
                    <polygon id="Shape" points="100.330049 57.6610169 111.118227 57.6610169 111.118227 12.8135593 100.330049 14.5838536"></polygon>
                    <path d="M118.669951,21.7837247 L118.669951,24.6311291 L118.669951,57.6610169 L128.801456,57.6610169 L128.801456,29.1869754 L128.801456,25.7700907 C128.801456,20.6447631 140.621547,21.7837247 140.621547,21.7837247 L144.561576,13.8109931 C128.238595,9.25514678 118.669951,21.7837247 118.669951,21.7837247 Z" id="Shape"></path>
                    <path d="M159.330219,47.8674885 L159.330219,22.7149459 L165.059113,22.7149459 L165.059113,14.7118645 L159.330219,14.7118645 L159.330219,2.13559322 L149.955665,3.27889056 L149.955665,47.2958396 C149.955665,53.5839753 154.642942,58.7288136 159.851027,58.7288136 L165.059113,58.7288136 L165.059113,51.869029 L162.975879,51.869029 C160.892645,51.869029 159.330219,49.5824343 159.330219,47.8674885 Z" id="Shape"></path>
                    <path d="M105.724138,0 C102.781908,0 100.330049,2.66949164 100.330049,5.87288162 C100.330049,9.07627107 102.781908,11.7457627 105.724138,11.7457627 C108.666368,11.7457627 111.118227,9.07627107 111.118227,5.87288162 C111.118227,2.66949164 108.666368,0 105.724138,0 Z" id="Shape"></path>
                    <path d="M183.193525,50.7811628 C177.234342,47.9427162 177.730941,37.7243083 177.730941,37.7243083 L199.084682,37.7243083 C199.084682,25.2351427 196.601689,13.8813559 185.676519,13.8813559 C174.751349,13.8813559 168.295567,22.9643855 168.295567,36.02124 C168.295567,48.5104056 175.247947,58.7288136 186.173118,58.7288136 C190.642505,58.7288136 196.601689,57.0257458 199.581281,54.1872988 L196.10509,48.5104056 C196.10509,48.5104056 189.152709,53.6196093 183.193525,50.7811628 Z M184.186723,21.8290067 C189.152709,21.8290067 190.145907,30.3443469 190.145907,30.3443469 L189.649308,30.3443469 L177.730941,30.3443469 C178.227539,30.3443469 179.220737,21.8290067 184.186723,21.8290067 Z" id="Shape"></path>
                    <path d="M79.3139587,10.6779661 C79.3139587,10.6779661 74.5071888,10.6779661 70.3012652,12.0038682 C66.0953416,12.6668193 61.889418,15.9815746 61.889418,15.9815746 L65.4944954,23.9369869 C65.4944954,23.9369869 69.700419,19.2963295 76.9105738,19.2963295 C85.9232671,19.2963295 84.7215747,29.2405955 84.7215747,29.2405955 C66.6961879,25.2628891 57.6834944,35.2071546 58.2843407,45.8143712 C58.2843407,50.4550286 58.8851869,55.7586372 63.6919567,59.073392 C79.3139587,70.3435601 94.9359606,53.769784 94.9359606,53.769784 L94.9359606,25.9258401 C94.3351143,17.9704273 87.7258058,10.6779661 79.3139587,10.6779661 Z M83.5198823,52.4438818 C83.5198823,52.4438818 76.3097275,56.4215882 72.1038039,53.1068329 C67.2970341,49.7920776 67.8978803,41.8366653 72.1038039,39.184861 C76.3097275,36.5330567 83.5198823,38.5219099 83.5198823,38.5219099 L83.5198823,52.4438818 Z" id="Shape"></path>
                    <path d="M8.53789396,18.99957 C-4.33565271,31.5468882 0.374181395,35.7858471 3.35707631,37.3118723 C6.49696559,38.8378975 10.578822,36.6336388 15.6026449,32.39468 C20.7834625,28.1557212 32.5580476,19.6778035 35.3839482,23.9167623 C38.2098486,27.9861628 38.2098486,36.2945221 26.2782689,47.1462567 C14.3466892,57.9979916 11.8347777,51.7243324 17.8005676,46.6375818 C23.7663574,41.7203895 22.6673963,38.6683391 19.8414956,38.159664 C16.8586007,37.650989 14.3466892,38.4987807 11.8347777,43.5855312 C11.8347777,43.5855312 7.90991592,51.8938907 12.9337389,54.0981494 C16.5446118,55.6241746 26.9062469,51.0460989 34.5989759,42.5681813 C40.2507766,36.4640805 44.4896276,29.0035129 42.7626884,19.1691284 C40.4077712,6.45225183 21.4114402,6.45225183 8.53789396,18.99957 Z" id="Shape"></path>
                </g>
            </g>
        </g>
    </g>
</svg>