<?xml version="1.0" encoding="UTF-8"?>
<svg width="380px" height="382px" viewBox="0 0 380 382" version="1.1" xmlns="http://www.w3.org/2000/svg" xmlns:xlink="http://www.w3.org/1999/xlink">
    <!-- Generator: Sketch 46.2 (44496) - http://www.bohemiancoding.com/sketch -->
    <defs></defs>
    <g id="Page-1" stroke="none" stroke-width="1" fill="none" fill-rule="evenodd">
        <g id="mpesa-icon-copy" transform="translate(1.000000, 1.000000)">
            <rect id="Rectangle-path" stroke="#D1D1D1" stroke-width="0.25" fill="#39B54A" x="0" y="0" width="378.577636" height="380"></rect>
            <g id="Group" transform="translate(14.258300, 120.111111)">
                <path d="M153.392937,22.3055556 L182.771567,22.3055556 C193.176498,23.8783142 198.072937,34.1012454 198.072937,49.0424525 C197.460882,63.9836596 190.728279,71.0610734 179.711293,72.6338321 L169.306361,72.6338321 L169.306361,113.525557 L154.004991,113.525557 L154.004991,22.3055556 L153.392937,22.3055556 Z M169.306361,31.7421074 C176.651019,30.1693488 182.159512,33.314866 182.159512,47.4696938 C182.159512,60.8381423 176.651019,63.9836596 169.306361,63.1972802 L169.306361,31.7421074 L169.306361,31.7421074 Z" id="Shape" fill="#FFFFFF"></path>
                <path d="M223.645647,22.7777778 L242.734357,22.7777778 L242.734357,32.4928995 L227.463389,32.4928995 C218.555325,34.7348507 220.464196,45.1972895 220.464196,53.4177772 L240.825486,52.6704601 L240.825486,64.627533 L221.100486,64.627533 L221.100486,93.7728983 C221.736776,101.246069 224.918228,104.982654 230.644841,105.729971 L241.461777,105.729971 L244.643228,105.729971 L244.643228,114.697776 L241.461777,114.697776 L221.100486,114.697776 C214.101292,114.697776 208.374679,110.213874 205.829518,97.5094836 L205.193228,41.4607042 C205.193228,28.7563142 211.556131,22.7777778 223.645647,22.7777778 L223.645647,22.7777778 Z" id="Shape" fill="#FFFFFF"></path>
                <path d="M251.471463,47.7301102 C250.227914,28.4422595 258.93276,23.8131753 269.50293,22.2701472 C281.938424,21.4986332 289.39972,27.6707454 291.265044,43.8725401 L276.964226,43.8725401 C276.342451,35.3858857 270.746479,32.2998296 266.394056,36.1573998 C259.554534,46.1870822 280.694874,64.7034189 286.912621,70.8755312 C297.482791,81.6767276 296.239242,110.994261 279.451325,116.394859 L269.50293,117.166373 C258.93276,117.166373 252.715013,109.451233 251.471463,94.0209521 L266.394056,94.0209521 C267.015831,100.193064 269.50293,104.822149 273.855353,104.050635 C281.316649,102.507606 283.181973,94.0209521 278.207775,83.9912697 C265.772281,73.9615873 252.715013,63.1603909 251.471463,47.7301102 L251.471463,47.7301102 Z" id="Shape" fill="#FFFFFF"></path>
                <path d="M0.31708664,20.6666667 L18.3858937,20.6666667 L18.3858937,26.8240862 C29.2271779,22.2060215 37.177453,18.3576343 45.8504804,26.8240862 C61.0282784,19.1273118 72.5923149,19.8969892 78.3743331,34.5208606 L79.0970854,114.567314 L61.0282784,114.567314 L61.0282784,38.3692478 C59.5827738,31.4421508 54.5235078,30.6724734 48.7414896,31.4421508 L48.7414896,115.336992 L29.9499302,115.336992 L29.9499302,39.1389252 C28.5044257,32.2118283 23.4451597,31.4421508 17.6631414,32.2118283 L17.6631414,116.106669 L0.31708664,116.106669 L0.31708664,20.6666667 L0.31708664,20.6666667 Z" id="Shape" fill="#FFFFFF"></path>
                <path d="M301.493717,116.110001 L319.621495,116.110001 L319.621495,66.4650416 L334.263162,66.4650416 L334.263162,116.110001 L351.693718,116.110001 L351.693718,45.5210745 C350.996495,30.7827273 341.235384,22.25 327.29094,22.25 C311.254828,22.25 302.190939,30.7827273 301.493717,44.745372 L301.493717,116.110001 L301.493717,116.110001 Z M319.621495,40.0911571 C320.318717,34.6612398 321.713162,32.3341323 327.29094,32.3341323 C332.868717,32.3341323 334.263162,36.2126447 334.960384,40.8668596 L334.960384,55.6052068 L320.318717,55.6052068 L320.318717,40.0911571 L319.621495,40.0911571 Z" id="Shape" fill="#FFFFFF"></path>
                <path d="M134.817814,150.055556 L99.1925661,150.055556 C93.9675298,150.055556 89.6925,145.305556 89.6925,139.5 L89.6925,24.4444444 C89.6925,18.6388889 93.9675298,13.8888889 99.1925661,13.8888889 L134.817814,13.8888889 C135.292817,13.8888889 135.767821,13.8888889 136.242824,13.8888889 L136.242824,5.44444444 C136.242824,2.80555556 138.142837,0.694444444 140.517854,0.694444444 L140.517854,0.694444444 C142.89287,0.694444444 144.792884,2.80555556 144.792884,5.44444444 L144.792884,19.6944444 C144.792884,20.2222222 144.792884,20.75 144.31788,21.2777778 C144.31788,22.3333333 144.792884,22.8611111 144.792884,23.9166667 L144.792884,139.5 C144.31788,145.305556 140.042851,150.055556 134.817814,150.055556 L134.817814,150.055556 Z M106.792619,28.6666667 L127.217761,28.6666667 C133.867808,28.6666667 139.092844,34.4722222 139.092844,41.8611111 L139.092844,79.8611111 C139.092844,87.25 133.867808,93.0555556 127.217761,93.0555556 L106.792619,93.0555556 C100.142573,93.0555556 94.9175364,87.25 94.9175364,79.8611111 L94.9175364,41.8611111 C94.9175364,35 100.142573,28.6666667 106.792619,28.6666667 L106.792619,28.6666667 Z" id="Shape" fill="#DAE182"></path>
                <path d="M106.792619,28.6666667 L127.217761,28.6666667 C133.867808,28.6666667 139.092844,34.4722222 139.092844,41.8611111 L139.092844,79.8611111 C139.092844,87.25 133.867808,93.0555556 127.217761,93.0555556 L106.792619,93.0555556 C100.142573,93.0555556 94.9175364,87.25 94.9175364,79.8611111 L94.9175364,41.8611111 C94.9175364,35 100.142573,28.6666667 106.792619,28.6666667 L106.792619,28.6666667 Z" id="Shape" fill="#FFFFFF"></path>
                <path d="M104.417603,54.5277778 C106.317616,59.8055556 109.167636,62.4444444 112.492659,62.4444444 C107.267622,66.6666667 101.567583,69.3055556 95.867543,70.8888889 C92.0675165,70.3611111 88.7424934,69.8333333 84.9424669,68.7777778 C93.4925265,67.1944444 100.142573,62.4444444 104.417603,54.5277778 L104.417603,54.5277778 Z" id="Shape" stroke="#D19360" stroke-width="1.7157" fill="#862216"></path>
                <path d="M127.217761,40.8055556 L151.917933,54.5277778 C139.567847,73 118.192698,73.5277778 95.867543,70.8888889 C110.592646,67.1944444 121.042718,56.6388889 127.217761,40.8055556 L127.217761,40.8055556 Z" id="Shape" stroke="#D19360" stroke-width="1.7157" fill="#E20D17"></path>
            </g>
        </g>
    </g>
</svg>