<?xml version="1.0" encoding="UTF-8"?>
<svg width="379px" height="380px" viewBox="0 0 379 380" version="1.1" xmlns="http://www.w3.org/2000/svg" xmlns:xlink="http://www.w3.org/1999/xlink">
    <!-- Generator: Sketch 46.2 (44496) - http://www.bohemiancoding.com/sketch -->
    <title>p_mtn_momo</title>
    <desc>Created with Sketch.</desc>
    <defs></defs>
    <g id="Page-1" stroke="none" stroke-width="1" fill="none" fill-rule="evenodd">
        <g id="p_mtn_momo" fill-rule="nonzero">
            <polygon id="Shape" fill="#FFCB05" points="0.548140496 379.848303 378.843388 379.848303 378.843388 0.606786427 0.548140496 0.606786427"></polygon>
            <path d="M373.127066,189.08982 C373.127066,229.592814 290.984298,262.43513 189.656612,262.43513 C88.3289256,262.43513 6.18615702,229.592814 6.18615702,189.08982 C6.18615702,148.662675 88.3289256,115.896208 189.656612,115.896208 C290.984298,115.896208 373.127066,148.662675 373.127066,189.08982" id="Shape" fill="#00678F"></path>
            <polygon id="Shape" fill="#FFFFFF" points="73.5291322 225.345309 92.4791322 152 122.783471 152 122.783471 194.702595 142.751446 152 173.995455 152 155.12376 225.345309 135.155785 225.345309 146.510124 177.94012 122.783471 225.345309 106.730785 225.345309 106.730785 177.94012 94.3584711 225.345309"></polygon>
            <polygon id="Shape" fill="#ED1D24" points="181.591116 216.015968 178.772107 226.255489 200.541116 226.255489 203.43843 216.015968"></polygon>
            <polygon id="Shape" fill="#FFCB05" points="182.609091 213.285429 193.96343 170.582834 173.995455 170.582834 178.772107 152 240.39876 152 235.700413 170.582834 215.732438 170.582834 204.378099 213.285429"></polygon>
            <polygon id="Shape" fill="#FFFFFF" points="226.147107 225.345309 245.175413 152 266.944421 152 276.497727 190.986028 286.834091 152 306.802066 152 287.77376 225.345309 266.944421 225.345309 256.529752 185.373253 246.115083 225.345309"></polygon>
        </g>
    </g>
</svg>