<?xml version="1.0" encoding="UTF-8"?>
<svg width="379px" height="380px" viewBox="0 0 379 380" version="1.1" xmlns="http://www.w3.org/2000/svg" xmlns:xlink="http://www.w3.org/1999/xlink">
    <!-- Generator: Sketch 46.2 (44496) - http://www.bohemiancoding.com/sketch -->
    <title>vodafone</title>
    <desc>Created with Sketch.</desc>
    <defs></defs>
    <g id="Page-1" stroke="none" stroke-width="1" fill="none" fill-rule="evenodd">
        <g id="vodafone" fill-rule="nonzero">
            <polygon id="Shape" fill="#D23A48" points="0 0 378.52085 0 378.52085 379.519585 0 379.519585"></polygon>
            <path d="M44.3571582,252.83218 L34.8109684,280.617549 L25.0459332,252.83218 L13,252.83218 L27.8890375,293.461354 L41.1140949,293.461354 L56.0880294,252.83218 L44.3571582,252.83218 Z M117.234582,273.196894 C117.234582,268.755482 119.903084,264.751437 123.995688,263.051959 C128.088291,261.352481 132.798963,262.292282 135.930981,265.433104 C139.062998,268.573927 139.999514,273.29719 138.303803,277.400299 C136.608093,281.503408 132.614125,284.178261 128.184402,284.177496 C122.137541,284.174364 117.236664,279.259709 117.234582,273.196894 Z M138.675777,236.265752 L138.675777,256.212427 C138.653138,256.201078 138.638045,256.185945 138.621066,256.172704 C135.293106,253.70798 131.223712,252.17202 126.818504,252.17202 C115.617767,252.17202 106.537567,261.552348 106.537567,273.126905 C106.537567,284.697679 115.615881,294.078008 126.818504,294.078008 C131.248238,294.078008 135.344044,292.612036 138.675777,290.124613 L138.675777,293.516209 L149.089803,293.516209 L149.089803,236.265752 L138.675777,236.265752 Z M166.76912,273.196894 C166.879913,267.21295 171.749714,262.420099 177.718939,262.420099 C183.688164,262.420099 188.557965,267.21295 188.668758,273.196894 C188.667716,279.261619 183.763931,284.177496 177.715166,284.177496 C171.669348,284.17332 166.77016,279.258665 166.76912,273.196894 L166.76912,273.196894 Z M188.206542,252.875686 L188.206542,256.212427 L188.15183,256.172704 C184.831416,253.70798 180.75259,252.17202 176.349268,252.17202 C165.148531,252.17202 156.068331,261.552348 156.068331,273.126905 C156.068331,284.697679 165.146645,294.078008 176.349268,294.078008 C180.779002,294.078008 184.871035,292.612036 188.206542,290.124613 L188.206542,293.516209 L198.62434,293.516209 L198.62434,252.877578 L188.206542,252.877578 L188.206542,252.875686 Z M227.008219,252.875686 L220.769236,252.875686 C220.769236,252.875686 220.746597,251.574281 220.746597,250.407179 C220.746597,247.832743 220.746597,244.562207 224.836743,244.562207 C225.887579,244.562207 226.896909,244.740015 226.896909,244.740015 L226.896909,235.289698 C226.896909,235.289698 225.187651,235.242409 224.023619,235.289698 C214.447244,235.662339 210.230696,238.940441 210.230696,248.538301 L210.230696,252.875686 L205.56891,252.875686 L205.56891,262.240882 L210.230696,262.240882 L210.230696,293.451896 L220.769236,293.451896 L220.769236,262.240882 L227.008219,262.240882 L227.008219,252.875686 L227.008219,252.875686 Z M290.04703,256.416717 C293.005217,253.715546 297.323641,252.032043 301.959015,252.032043 C311.507091,252.032043 316.974454,258.128594 317.000867,266.179144 L317.00464,270.730278 L317.00464,293.463245 L306.256687,293.463245 L306.256687,269.748549 C306.256687,263.778734 302.108056,261.960928 298.827261,261.960928 C295.804929,261.960928 290.028164,263.631191 290.352659,270.919435 L290.352659,293.463245 L279.58584,293.463245 L279.58584,252.875686 L290.04703,252.875686 L290.04703,256.416717 L290.04703,256.416717 Z M335.174473,276.34826 C335.685741,281.449842 339.941908,285.170573 345.156467,285.170573 C349.269252,285.170573 351.995387,283.541926 353.612202,280.581609 L364.865764,280.581609 C363.064062,286.907041 355.970451,294.059092 345.516807,294.059092 C332.936967,294.059092 324.071839,284.667414 324.071839,273.081507 C324.071839,261.495601 333.574637,252.10014 345.516807,252.10014 C357.462751,252.10014 365.959991,262.31087 365.959991,273.081507 C365.959991,275.324917 365.709074,276.333128 365.709074,276.333128 L335.174473,276.34826 Z M354.602667,268.496326 C353.693326,263.888445 349.839005,261.236455 345.15458,261.236455 C340.321114,261.236455 336.54037,264.058687 335.451803,268.46606 L354.602667,268.496326 Z M86.8358162,253.448834 C82.9021154,254.313482 80.0956337,257.802135 80.0855658,261.839868 C80.0855658,261.928772 80.108205,262.036592 80.1100916,262.119821 C86.1962592,263.421226 89.2657554,267.535405 89.2657554,272.956663 C89.2657554,279.053215 84.2945677,283.995904 78.2159464,283.995904 C72.1373252,283.995904 66.4586629,278.909455 66.4586629,271.371522 C66.4586629,262.169002 74.3276664,253.530172 85.5434961,253.261568 C85.7434755,253.257785 86.0641973,253.265351 86.3905789,253.280483 C83.8495572,252.311921 81.1532389,251.817649 78.4347919,251.822078 C66.4020649,251.822078 56.6483492,261.287527 56.6483492,272.958555 C56.6483492,284.633366 66.4020649,294.095032 78.4347919,294.095032 C90.4694055,294.095032 100.223121,284.633366 100.223121,272.958555 C100.223121,264.174073 94.6972733,256.645598 86.8358162,253.448834 L86.8358162,253.448834 Z M251.14159,251.997994 C239.106976,251.997994 229.349488,261.459661 229.349488,273.134471 C229.349488,281.917062 234.877222,289.44932 242.744339,292.638518 C246.675644,291.774324 249.479537,288.286562 249.487043,284.251267 C249.487043,284.162363 249.468177,284.058326 249.464404,283.971314 C243.37635,282.673692 240.306853,278.559513 240.306853,273.134471 C240.306853,267.034137 245.278041,262.099014 251.356662,262.099014 C257.435284,262.099014 263.113946,267.179788 263.113946,274.719613 C263.113946,283.925916 255.243056,292.55718 244.030999,292.83335 C243.748483,292.833688 243.466012,292.826119 243.183916,292.810651 C245.645928,293.748873 248.328671,294.269057 251.139703,294.269057 C263.170544,294.269057 272.92426,284.803608 272.92426,273.13258 C272.926146,261.459661 263.17243,251.997994 251.14159,251.997994 L251.14159,251.997994 Z M215.801822,84.2208241 C203.554023,86.9238871 194.326668,97.9347545 194.326668,111.11526 C194.326668,111.398997 194.392699,111.735697 194.404019,112.019434 C213.771842,116.180903 223.538763,129.361408 223.538763,146.758238 C223.538763,166.296333 207.719633,182.14207 188.376335,182.14207 C169.036811,182.14207 150.968855,165.840463 150.968855,141.669897 C150.968855,112.161302 176.005907,84.4818617 211.683377,83.6041702 C212.328593,83.5909291 213.34547,83.6155196 214.388759,83.6609175 C206.306787,80.5674404 197.727126,78.987649 189.076264,79.0000727 C150.789628,79.0000727 119.747532,109.337178 119.747532,146.76013 C119.747532,184.184973 150.789628,214.520187 189.076264,214.520187 C227.357239,214.520187 258.397449,184.183082 258.397449,146.76013 C258.397449,118.594554 240.818122,94.4429041 215.801822,84.2208241 L215.801822,84.2208241 Z" id="Shape" fill="#FFFFFF"></path>
        </g>
    </g>
</svg>